<svg width="187" height="69" viewBox="0 0 187 69" fill="none" xmlns="http://www.w3.org/2000/svg">
<rect y="0.500183" width="186.847" height="67.9996" rx="10.2641" fill="#F4F4F4"/>
<path d="M42.8271 35.5307C42.864 32.6577 44.4009 29.9393 46.839 28.4345C45.3009 26.2292 42.7247 24.831 40.0443 24.7468C37.1855 24.4456 34.414 26.4642 32.9572 26.4642C31.4723 26.4642 29.2293 24.7767 26.814 24.8266C23.6657 24.9287 20.7308 26.7256 19.1991 29.4888C15.9066 35.2115 18.3625 43.622 21.5165 48.2478C23.0945 50.513 24.9387 53.0432 27.3518 52.9535C29.7132 52.8551 30.5951 51.4418 33.4455 51.4418C36.2695 51.4418 37.0969 52.9535 39.559 52.8964C42.0929 52.8551 43.6893 50.6212 45.212 48.3346C46.3457 46.7206 47.2182 44.9368 47.797 43.0493C44.8192 41.7849 42.8306 38.7765 42.8271 35.5307Z" fill="#090909"/>
<path d="M38.1766 21.7047C39.5582 20.0397 40.2389 17.8996 40.074 15.7389C37.9633 15.9614 36.0136 16.9742 34.6133 18.5753C33.2441 20.1397 32.5315 22.2421 32.6662 24.3202C34.7777 24.342 36.8535 23.3568 38.1766 21.7047Z" fill="#090909"/>
<path d="M127.051 32.5638V36.0452H124.877V38.3283H127.051V46.0858C127.051 48.7347 128.245 49.7942 131.248 49.7942C131.775 49.7942 132.278 49.7312 132.718 49.6555V47.3976C132.341 47.4354 132.102 47.4607 131.687 47.4607C130.343 47.4607 129.752 46.83 129.752 45.392V38.3283H132.718V36.0452H129.752V32.5638H127.051Z" fill="#090909"/>
<path d="M140.368 49.9834C144.363 49.9834 146.813 47.2967 146.813 42.844C146.813 38.4166 144.351 35.7172 140.368 35.7172C136.372 35.7172 133.909 38.4166 133.909 42.844C133.909 47.2967 136.359 49.9834 140.368 49.9834ZM140.368 47.5742C138.018 47.5742 136.699 45.8461 136.699 42.844C136.699 39.8672 138.018 38.1265 140.368 38.1265C142.705 38.1265 144.037 39.8672 144.037 42.844C144.037 45.8335 142.705 47.5742 140.368 47.5742Z" fill="#090909"/>
<path d="M148.91 49.7185H151.611V41.6079C151.611 39.678 153.056 38.3787 155.104 38.3787C155.582 38.3787 156.386 38.467 156.612 38.5427V35.8686C156.323 35.7929 155.808 35.7551 155.406 35.7551C153.621 35.7551 152.101 36.7389 151.712 38.0886H151.511V35.9821H148.91V49.7185Z" fill="#090909"/>
<path d="M163.319 38.0255C165.317 38.0255 166.624 39.4257 166.687 41.5826H159.776C159.927 39.4383 161.322 38.0255 163.319 38.0255ZM166.674 46.0101C166.172 47.0823 165.053 47.6751 163.42 47.6751C161.259 47.6751 159.864 46.1488 159.776 43.7396V43.5882H169.438V42.6422C169.438 38.3283 167.139 35.7172 163.332 35.7172C159.475 35.7172 157.024 38.5049 157.024 42.8945C157.024 47.2841 159.424 49.9834 163.345 49.9834C166.473 49.9834 168.659 48.4698 169.275 46.0101H166.674Z" fill="#090909"/>
<path d="M109.335 44.6459C109.544 48.0189 112.344 50.1761 116.511 50.1761C120.965 50.1761 123.752 47.9144 123.752 44.306C123.752 41.469 122.163 39.9001 118.308 38.998L116.238 38.4881C113.789 37.9129 112.8 37.1415 112.8 35.7949C112.8 34.0953 114.336 32.984 116.641 32.984C118.829 32.984 120.34 34.0692 120.613 35.808H123.452C123.283 32.631 120.496 30.3954 116.68 30.3954C112.578 30.3954 109.843 32.631 109.843 35.991C109.843 38.7627 111.393 40.41 114.792 41.2075L117.214 41.7958C119.702 42.3841 120.796 43.247 120.796 44.6851C120.796 46.3586 119.077 47.5744 116.733 47.5744C114.219 47.5744 112.474 46.437 112.227 44.6459H109.335Z" fill="#090909"/>
<path d="M81.3515 35.7551C79.4919 35.7551 77.8836 36.6885 77.0543 38.2526H76.8533V35.9821H74.2524V54.2847H76.9538V47.6373H77.1674C77.8836 49.0879 79.4291 49.9456 81.3766 49.9456C84.8319 49.9456 87.0308 47.2084 87.0308 42.844C87.0308 38.4796 84.8319 35.7551 81.3515 35.7551ZM80.585 47.5111C78.3234 47.5111 76.9036 45.72 76.9036 42.8566C76.9036 39.9807 78.3234 38.1895 80.5976 38.1895C82.8844 38.1895 84.2539 39.9428 84.2539 42.844C84.2539 45.7578 82.8844 47.5111 80.585 47.5111Z" fill="#090909"/>
<path d="M96.4835 35.7551C94.6239 35.7551 93.0156 36.6885 92.1863 38.2526H91.9853V35.9821H89.3844V54.2847H92.0858V47.6373H92.2994C93.0156 49.0879 94.5611 49.9456 96.5086 49.9456C99.9639 49.9456 102.163 47.2084 102.163 42.844C102.163 38.4796 99.9639 35.7551 96.4835 35.7551ZM95.717 47.5111C93.4554 47.5111 92.0355 45.72 92.0355 42.8566C92.0355 39.9807 93.4554 38.1895 95.7296 38.1895C98.0164 38.1895 99.3859 39.9428 99.3859 42.844C99.3859 45.7578 98.0164 47.5111 95.717 47.5111Z" fill="#090909"/>
<path d="M69.4056 49.7185H72.5051L65.7201 30.853H62.5815L55.7965 49.7185H58.7918L60.5239 44.7113H67.6865L69.4056 49.7185ZM64.001 34.2783H64.2224L66.9442 42.2534H61.2662L64.001 34.2783Z" fill="#090909"/>
<path d="M55.7197 17.5463V25.0033H58.4017C60.6152 25.0033 61.8969 23.6339 61.8969 21.2515C61.8969 18.9054 60.6049 17.5463 58.4017 17.5463H55.7197ZM56.8728 18.6005H58.273C59.8121 18.6005 60.7233 19.5824 60.7233 21.267C60.7233 22.9776 59.8276 23.9491 58.273 23.9491H56.8728V18.6005Z" fill="#090909"/>
<path d="M65.8225 25.1118C67.4595 25.1118 68.4633 24.0111 68.4633 22.1869C68.4633 20.373 67.4543 19.2671 65.8225 19.2671C64.1856 19.2671 63.1766 20.373 63.1766 22.1869C63.1766 24.0111 64.1804 25.1118 65.8225 25.1118ZM65.8225 24.1248C64.8599 24.1248 64.3194 23.4168 64.3194 22.1869C64.3194 20.9673 64.8599 20.2542 65.8225 20.2542C66.78 20.2542 67.3256 20.9673 67.3256 22.1869C67.3256 23.4117 66.78 24.1248 65.8225 24.1248Z" fill="#090909"/>
<path d="M77.0115 19.3756H75.9047L74.9061 23.67H74.8186L73.6655 19.3756H72.6051L71.452 23.67H71.3696L70.3658 19.3756H69.2437L70.788 25.0033H71.9256L73.0787 20.8588H73.1662L74.3244 25.0033H75.4723L77.0115 19.3756Z" fill="#090909"/>
<path d="M78.286 25.0033H79.3928V21.7115C79.3928 20.833 79.9127 20.2852 80.7312 20.2852C81.5496 20.2852 81.9409 20.7348 81.9409 21.6391V25.0033H83.0476V21.3601C83.0476 20.0216 82.3578 19.2671 81.1069 19.2671C80.2627 19.2671 79.7068 19.6444 79.434 20.2697H79.3516V19.3756H78.286V25.0033Z" fill="#090909"/>
<path d="M84.7906 25.0033H85.8974V17.1794H84.7906V25.0033Z" fill="#090909"/>
<path d="M90.0598 25.1118C91.6967 25.1118 92.7005 24.0111 92.7005 22.1869C92.7005 20.373 91.6916 19.2671 90.0598 19.2671C88.4228 19.2671 87.4139 20.373 87.4139 22.1869C87.4139 24.0111 88.4177 25.1118 90.0598 25.1118ZM90.0598 24.1248C89.0971 24.1248 88.5566 23.4168 88.5566 22.1869C88.5566 20.9673 89.0971 20.2542 90.0598 20.2542C91.0172 20.2542 91.5629 20.9673 91.5629 22.1869C91.5629 23.4117 91.0172 24.1248 90.0598 24.1248Z" fill="#090909"/>
<path d="M95.9981 24.161C95.3958 24.161 94.9583 23.8664 94.9583 23.36C94.9583 22.8639 95.3083 22.6003 96.0805 22.5486L97.4497 22.4608V22.9311C97.4497 23.6287 96.832 24.161 95.9981 24.161ZM95.715 25.0963C96.4511 25.0963 97.0637 24.7759 97.3983 24.2127H97.4858V25.0033H98.5513V21.1585C98.5513 19.9699 97.7586 19.2671 96.3533 19.2671C95.0818 19.2671 94.1758 19.8873 94.0626 20.8536H95.1333C95.2568 20.4557 95.6841 20.2283 96.3018 20.2283C97.0585 20.2283 97.4497 20.5642 97.4497 21.1585V21.6443L95.9312 21.7321C94.5979 21.8148 93.8464 22.3988 93.8464 23.4117C93.8464 24.44 94.634 25.0963 95.715 25.0963Z" fill="#090909"/>
<path d="M102.307 25.0963C103.079 25.0963 103.733 24.7294 104.068 24.1145H104.155V25.0033H105.215V17.1794H104.109V20.2697H104.026C103.723 19.6495 103.074 19.2826 102.307 19.2826C100.891 19.2826 99.9803 20.4092 99.9803 22.1869C99.9803 23.9698 100.881 25.0963 102.307 25.0963ZM102.621 20.28C103.548 20.28 104.129 21.019 104.129 22.1921C104.129 23.3703 103.553 24.099 102.621 24.099C101.684 24.099 101.123 23.3807 101.123 22.1869C101.123 21.0035 101.689 20.28 102.621 20.28Z" fill="#090909"/>
<path d="M112.392 25.1118C114.029 25.1118 115.033 24.0111 115.033 22.1869C115.033 20.373 114.024 19.2671 112.392 19.2671C110.755 19.2671 109.746 20.373 109.746 22.1869C109.746 24.0111 110.75 25.1118 112.392 25.1118ZM112.392 24.1248C111.43 24.1248 110.889 23.4168 110.889 22.1869C110.889 20.9673 111.43 20.2542 112.392 20.2542C113.35 20.2542 113.895 20.9673 113.895 22.1869C113.895 23.4117 113.35 24.1248 112.392 24.1248Z" fill="#090909"/>
<path d="M116.498 25.0033H117.605V21.7115C117.605 20.833 118.125 20.2852 118.943 20.2852C119.762 20.2852 120.153 20.7348 120.153 21.6391V25.0033H121.26V21.3601C121.26 20.0216 120.57 19.2671 119.319 19.2671C118.475 19.2671 117.919 19.6444 117.646 20.2697H117.564V19.3756H116.498V25.0033Z" fill="#090909"/>
<path d="M126.357 17.9752V19.4015H125.466V20.3368H126.357V23.515C126.357 24.6002 126.846 25.0343 128.076 25.0343C128.292 25.0343 128.498 25.0085 128.679 24.9775V24.0525C128.524 24.068 128.426 24.0783 128.256 24.0783C127.706 24.0783 127.464 23.8199 127.464 23.2308V20.3368H128.679V19.4015H127.464V17.9752H126.357Z" fill="#090909"/>
<path d="M130.164 25.0033H131.271V21.7166C131.271 20.864 131.775 20.2903 132.681 20.2903C133.464 20.2903 133.881 20.7451 133.881 21.6443V25.0033H134.987V21.3704C134.987 20.032 134.251 19.2723 133.057 19.2723C132.213 19.2723 131.621 19.6495 131.348 20.28H131.261V17.1794H130.164V25.0033Z" fill="#090909"/>
<path d="M138.98 20.2128C139.798 20.2128 140.334 20.7864 140.36 21.6701H137.528C137.59 20.7916 138.162 20.2128 138.98 20.2128ZM140.354 23.484C140.149 23.9233 139.69 24.1662 139.021 24.1662C138.136 24.1662 137.564 23.5409 137.528 22.5538V22.4918H141.487V22.1042C141.487 20.3368 140.545 19.2671 138.985 19.2671C137.405 19.2671 136.401 20.4092 136.401 22.2076C136.401 24.006 137.384 25.1118 138.99 25.1118C140.272 25.1118 141.168 24.4917 141.42 23.484H140.354Z" fill="#090909"/>
</svg>
