<svg width="184" height="68" viewBox="0 0 184 68" fill="none" xmlns="http://www.w3.org/2000/svg">
<rect x="0.847656" width="182.444" height="67.9996" rx="10.2641" fill="#F4F4F4"/>
<g filter="url(#filter0_ii_1_210)">
<path d="M19.0584 17.2184C18.6642 17.6373 18.4312 18.2874 18.4312 19.1292V49.2068C18.4312 50.05 18.6642 50.6987 19.0584 51.1176L19.1587 51.2155L35.9421 34.3666V34.168V33.9694L19.1587 17.1191L19.0584 17.2184Z" fill="url(#paint0_linear_1_210)"/>
<path d="M41.5352 39.9841L35.9416 34.3659V34.1674V33.9688L41.5366 28.3521L41.6626 28.4241L48.2911 32.2049C50.1837 33.2847 50.1837 35.0514 48.2911 36.1326L41.6626 39.9134L41.5352 39.9841Z" fill="url(#paint1_linear_1_210)"/>
<g filter="url(#filter1_i_1_210)">
<path d="M41.6619 39.9128L35.9396 34.1682L19.0573 51.1178C19.6805 51.7815 20.7114 51.8631 21.8724 51.2021L41.6619 39.9128Z" fill="url(#paint2_linear_1_210)"/>
</g>
<path d="M41.6619 28.4237L21.8724 17.1358C20.7114 16.4735 19.6805 16.5564 19.0573 17.2201L35.941 34.1697L41.6619 28.4237Z" fill="url(#paint3_linear_1_210)"/>
</g>
<path d="M92.2763 35.8137C89.267 35.8137 86.8142 38.1015 86.8142 41.2526C86.8142 44.3844 89.267 46.6914 92.2763 46.6914C95.2869 46.6914 97.7397 44.3844 97.7397 41.2526C97.7384 38.1015 95.2856 35.8137 92.2763 35.8137ZM92.2763 44.5506C90.6271 44.5506 89.2056 43.1913 89.2056 41.2538C89.2056 39.2959 90.6283 37.957 92.2763 37.957C93.9256 37.957 95.3471 39.2959 95.3471 41.2538C95.3471 43.19 93.9256 44.5506 92.2763 44.5506ZM80.3593 35.8137C77.35 35.8137 74.8972 38.1015 74.8972 41.2526C74.8972 44.3844 77.35 46.6914 80.3593 46.6914C83.3699 46.6914 85.8226 44.3844 85.8226 41.2526C85.8226 38.1015 83.3699 35.8137 80.3593 35.8137ZM80.3593 44.5506C78.71 44.5506 77.2885 43.1913 77.2885 41.2538C77.2885 39.2959 78.7113 37.957 80.3593 37.957C82.0085 37.957 83.43 39.2959 83.43 41.2538C83.4313 43.19 82.0085 44.5506 80.3593 44.5506ZM66.1853 37.4838V39.7908H71.71C71.545 41.0889 71.1125 42.0365 70.4523 42.6951C69.6488 43.4982 68.3911 44.3844 66.1853 44.3844C62.7844 44.3844 60.1257 41.6439 60.1257 38.2447C60.1257 34.8456 62.7844 32.1051 66.1853 32.1051C68.02 32.1051 69.3596 32.8264 70.3487 33.7535L71.9774 32.1256C70.5956 30.8071 68.7621 29.7981 66.1853 29.7981C61.5267 29.7981 57.6102 33.5885 57.6102 38.2447C57.6102 42.901 61.5267 46.6914 66.1853 46.6914C68.6994 46.6914 70.5969 45.8666 72.0798 44.3217C73.6049 42.7974 74.0796 40.6541 74.0796 38.9238C74.0796 38.3893 74.0387 37.8943 73.9555 37.4826L66.1853 37.4838ZM124.156 39.2755C123.703 38.0606 122.321 35.8137 119.497 35.8137C116.694 35.8137 114.364 38.0184 114.364 41.2526C114.364 44.3013 116.673 46.6914 119.765 46.6914C122.258 46.6914 123.701 45.167 124.3 44.2808L122.445 43.0442C121.827 43.9509 120.981 44.5481 119.765 44.5481C118.549 44.5481 117.683 43.9918 117.126 42.8997L124.403 39.8919L124.156 39.2755ZM116.735 41.0889C116.673 38.9865 118.364 37.9161 119.58 37.9161C120.528 37.9161 121.332 38.3905 121.601 39.0696L116.735 41.0889ZM110.82 46.3627H113.21V30.3761H110.82V46.3627ZM106.902 37.0299H106.82C106.284 36.3904 105.253 35.8137 103.955 35.8137C101.234 35.8137 98.7402 38.2038 98.7402 41.2743C98.7402 44.323 101.234 46.6927 103.955 46.6927C105.254 46.6927 106.284 46.1159 106.82 45.4573H106.902V46.24C106.902 48.3206 105.789 49.4332 103.996 49.4332C102.533 49.4332 101.625 48.3833 101.254 47.4971L99.1727 48.3628C99.7702 49.8041 101.357 51.5765 103.996 51.5765C106.8 51.5765 109.17 49.9281 109.17 45.91V36.1449H106.903L106.902 37.0299ZM104.161 44.5506C102.512 44.5506 101.132 43.1695 101.132 41.2743C101.132 39.3573 102.512 37.957 104.161 37.957C105.789 37.957 107.067 39.3573 107.067 41.2743C107.067 43.1695 105.789 44.5506 104.161 44.5506ZM135.356 30.3761H129.636V46.3627H132.022V40.3062H135.355C138.001 40.3062 140.603 38.3918 140.603 35.3418C140.603 32.2918 138.002 30.3761 135.356 30.3761ZM135.418 38.0811H132.022V32.6013H135.418C137.202 32.6013 138.216 34.0783 138.216 35.3418C138.216 36.5797 137.202 38.0811 135.418 38.0811ZM150.173 35.7856C148.444 35.7856 146.654 36.5465 145.913 38.2332L148.032 39.1169C148.485 38.2332 149.329 37.9442 150.213 37.9442C151.448 37.9442 152.703 38.6847 152.724 40.0006V40.1655C152.291 39.9187 151.365 39.5492 150.234 39.5492C147.95 39.5492 145.624 40.8037 145.624 43.1478C145.624 45.2872 147.497 46.6645 149.595 46.6645C151.2 46.6645 152.085 45.9446 152.641 45.1005H152.723V46.3346H155.028V40.2052C155.029 37.3688 152.908 35.7856 150.173 35.7856ZM149.883 44.5468C149.103 44.5468 148.011 44.1555 148.011 43.1887C148.011 41.9546 149.37 41.4815 150.544 41.4815C151.591 41.4815 152.087 41.7078 152.724 42.016C152.538 43.4982 151.263 44.5468 149.883 44.5468ZM163.424 36.1347L160.687 43.0659H160.605L157.765 36.1347H155.193L159.453 45.8218L157.024 51.2108H159.514L166.079 36.1347H163.424ZM141.921 46.3627H144.307V30.3761H141.921V46.3627Z" fill="#090909"/>
<path d="M65.8883 20.9203C65.8883 21.9725 65.5712 22.81 64.9359 23.4353C64.2149 24.1787 63.2741 24.5504 62.1185 24.5504C61.0115 24.5504 60.0693 24.1737 59.2959 23.4203C58.5213 22.6656 58.1339 21.7314 58.1339 20.6164C58.1339 19.5001 58.5213 18.5659 59.2959 17.8125C60.0693 17.0579 61.0115 16.6812 62.1185 16.6812C62.6682 16.6812 63.1936 16.7866 63.6921 16.9963C64.1919 17.2073 64.5921 17.4873 64.8912 17.8376L64.2175 18.5006C63.71 17.9042 63.0108 17.6066 62.1172 17.6066C61.3093 17.6066 60.6113 17.8853 60.022 18.4429C59.4327 19.0004 59.1387 19.7249 59.1387 20.6151C59.1387 21.5054 59.4327 22.2299 60.022 22.7874C60.6113 23.3449 61.3093 23.6237 62.1172 23.6237C62.9737 23.6237 63.6883 23.3437 64.2597 22.7824C64.6304 22.417 64.8452 21.9085 64.9027 21.2568H62.1172V20.3515H65.8333C65.8717 20.5486 65.8883 20.7382 65.8883 20.9203Z" fill="#090909"/>
<path d="M71.7815 17.7737H68.2891V20.1619H71.4389V21.0672H68.2891V23.4555H71.7815V24.3822H67.3035V16.8482H71.7815V17.7737Z" fill="#090909"/>
<path d="M75.9372 24.3822H74.9516V17.7737H72.8091V16.8482H78.0797V17.7737H75.9372V24.3822Z" fill="#090909"/>
<path d="M81.8929 24.3822V16.8482H82.8785V24.3822H81.8929Z" fill="#090909"/>
<path d="M87.2493 24.3822H86.2637V17.7737H84.1212V16.8482H89.3918V17.7737H87.2493V24.3822Z" fill="#090909"/>
<path d="M99.3688 23.409C98.6146 24.17 97.6776 24.5504 96.5565 24.5504C95.4354 24.5504 94.4984 24.17 93.7455 23.409C92.9912 22.6481 92.6154 21.7164 92.6154 20.6152C92.6154 19.514 92.9912 18.5823 93.7455 17.8214C94.4984 17.0604 95.4354 16.6787 96.5565 16.6787C97.6712 16.6787 98.6069 17.0617 99.3637 17.8264C100.12 18.5911 100.499 19.5203 100.499 20.6152C100.499 21.7164 100.122 22.6481 99.3688 23.409ZM94.4728 22.7774C95.0404 23.3425 95.7345 23.6238 96.5565 23.6238C97.3785 23.6238 98.0739 23.3412 98.6402 22.7774C99.2078 22.2124 99.4928 21.4916 99.4928 20.6152C99.4928 19.7387 99.2078 19.018 98.6402 18.453C98.0739 17.8879 97.3785 17.6066 96.5565 17.6066C95.7345 17.6066 95.0404 17.8892 94.4728 18.453C93.9065 19.018 93.6215 19.7387 93.6215 20.6152C93.6215 21.4916 93.9065 22.2124 94.4728 22.7774Z" fill="#090909"/>
<path d="M101.882 24.3822V16.8482H103.081L106.809 22.7084H106.851L106.809 21.2569V16.8482H107.794V24.3822H106.765L102.865 18.237H102.823L102.865 19.6885V24.3822H101.882Z" fill="#090909"/>
<path d="M65.8883 20.9203C65.8883 21.9725 65.5712 22.81 64.9359 23.4353C64.2149 24.1787 63.2741 24.5504 62.1185 24.5504C61.0115 24.5504 60.0693 24.1737 59.2959 23.4203C58.5213 22.6656 58.1339 21.7314 58.1339 20.6164C58.1339 19.5001 58.5213 18.5659 59.2959 17.8125C60.0693 17.0579 61.0115 16.6812 62.1185 16.6812C62.6682 16.6812 63.1936 16.7866 63.6921 16.9963C64.1919 17.2073 64.5921 17.4873 64.8912 17.8376L64.2175 18.5006C63.71 17.9042 63.0108 17.6066 62.1172 17.6066C61.3093 17.6066 60.6113 17.8853 60.022 18.4429C59.4327 19.0004 59.1387 19.7249 59.1387 20.6151C59.1387 21.5054 59.4327 22.2299 60.022 22.7874C60.6113 23.3449 61.3093 23.6237 62.1172 23.6237C62.9737 23.6237 63.6883 23.3437 64.2597 22.7824C64.6304 22.417 64.8452 21.9085 64.9027 21.2568H62.1172V20.3515H65.8333C65.8717 20.5486 65.8883 20.7382 65.8883 20.9203Z" stroke="white" stroke-width="0.0524781" stroke-miterlimit="10"/>
<path d="M71.7815 17.7737H68.2891V20.1619H71.4389V21.0672H68.2891V23.4555H71.7815V24.3822H67.3035V16.8482H71.7815V17.7737Z" stroke="white" stroke-width="0.0524781" stroke-miterlimit="10"/>
<path d="M75.9372 24.3822H74.9516V17.7737H72.8091V16.8482H78.0797V17.7737H75.9372V24.3822Z" stroke="white" stroke-width="0.0524781" stroke-miterlimit="10"/>
<path d="M81.8929 24.3822V16.8482H82.8785V24.3822H81.8929Z" stroke="white" stroke-width="0.0524781" stroke-miterlimit="10"/>
<path d="M87.2493 24.3822H86.2637V17.7737H84.1212V16.8482H89.3918V17.7737H87.2493V24.3822Z" stroke="white" stroke-width="0.0524781" stroke-miterlimit="10"/>
<path d="M99.3688 23.409C98.6146 24.17 97.6776 24.5504 96.5565 24.5504C95.4354 24.5504 94.4984 24.17 93.7455 23.409C92.9912 22.6481 92.6154 21.7164 92.6154 20.6152C92.6154 19.514 92.9912 18.5823 93.7455 17.8214C94.4984 17.0604 95.4354 16.6787 96.5565 16.6787C97.6712 16.6787 98.6069 17.0617 99.3637 17.8264C100.12 18.5911 100.499 19.5203 100.499 20.6152C100.499 21.7164 100.122 22.6481 99.3688 23.409ZM94.4728 22.7774C95.0404 23.3425 95.7345 23.6238 96.5565 23.6238C97.3785 23.6238 98.0739 23.3412 98.6402 22.7774C99.2078 22.2124 99.4928 21.4916 99.4928 20.6152C99.4928 19.7387 99.2078 19.018 98.6402 18.453C98.0739 17.8879 97.3785 17.6066 96.5565 17.6066C95.7345 17.6066 95.0404 17.8892 94.4728 18.453C93.9065 19.018 93.6215 19.7387 93.6215 20.6152C93.6215 21.4916 93.9065 22.2124 94.4728 22.7774Z" stroke="white" stroke-width="0.0524781" stroke-miterlimit="10"/>
<path d="M101.882 24.3822V16.8482H103.081L106.809 22.7084H106.851L106.809 21.2569V16.8482H107.794V24.3822H106.765L102.865 18.237H102.823L102.865 19.6885V24.3822H101.882Z" stroke="white" stroke-width="0.0524781" stroke-miterlimit="10"/>
<defs>
<filter id="filter0_ii_1_210" x="18.4312" y="16.6787" width="31.2794" height="34.98" filterUnits="userSpaceOnUse" color-interpolation-filters="sRGB">
<feFlood flood-opacity="0" result="BackgroundImageFix"/>
<feBlend mode="normal" in="SourceGraphic" in2="BackgroundImageFix" result="shape"/>
<feColorMatrix in="SourceAlpha" type="matrix" values="0 0 0 0 0 0 0 0 0 0 0 0 0 0 0 0 0 0 127 0" result="hardAlpha"/>
<feOffset dy="-0.203999"/>
<feComposite in2="hardAlpha" operator="arithmetic" k2="-1" k3="1"/>
<feColorMatrix type="matrix" values="0 0 0 0 0 0 0 0 0 0 0 0 0 0 0 0 0 0 0.12 0"/>
<feBlend mode="normal" in2="shape" result="effect1_innerShadow_1_210"/>
<feColorMatrix in="SourceAlpha" type="matrix" values="0 0 0 0 0 0 0 0 0 0 0 0 0 0 0 0 0 0 127 0" result="hardAlpha"/>
<feOffset dy="0.203999"/>
<feComposite in2="hardAlpha" operator="arithmetic" k2="-1" k3="1"/>
<feColorMatrix type="matrix" values="0 0 0 0 1 0 0 0 0 1 0 0 0 0 1 0 0 0 0.25 0"/>
<feBlend mode="normal" in2="effect1_innerShadow_1_210" result="effect2_innerShadow_1_210"/>
</filter>
<filter id="filter1_i_1_210" x="19.0573" y="34.1682" width="22.6046" height="17.4905" filterUnits="userSpaceOnUse" color-interpolation-filters="sRGB">
<feFlood flood-opacity="0" result="BackgroundImageFix"/>
<feBlend mode="normal" in="SourceGraphic" in2="BackgroundImageFix" result="shape"/>
<feColorMatrix in="SourceAlpha" type="matrix" values="0 0 0 0 0 0 0 0 0 0 0 0 0 0 0 0 0 0 127 0" result="hardAlpha"/>
<feOffset dy="-0.203999"/>
<feComposite in2="hardAlpha" operator="arithmetic" k2="-1" k3="1"/>
<feColorMatrix type="matrix" values="0 0 0 0 0 0 0 0 0 0 0 0 0 0 0 0 0 0 0.08 0"/>
<feBlend mode="normal" in2="shape" result="effect1_innerShadow_1_210"/>
</filter>
<linearGradient id="paint0_linear_1_210" x1="34.4544" y1="18.811" x2="11.6311" y2="41.5455" gradientUnits="userSpaceOnUse">
<stop stop-color="#00A0FF"/>
<stop offset="0.0066" stop-color="#00A1FF"/>
<stop offset="0.2601" stop-color="#00BEFF"/>
<stop offset="0.5122" stop-color="#00D2FF"/>
<stop offset="0.7604" stop-color="#00DFFF"/>
<stop offset="1" stop-color="#00E3FF"/>
</linearGradient>
<linearGradient id="paint1_linear_1_210" x1="50.7547" y1="34.1674" x2="17.9764" y2="34.1674" gradientUnits="userSpaceOnUse">
<stop stop-color="#FFE000"/>
<stop offset="0.4087" stop-color="#FFBD00"/>
<stop offset="0.7754" stop-color="#FFA500"/>
<stop offset="1" stop-color="#FF9C00"/>
</linearGradient>
<linearGradient id="paint2_linear_1_210" x1="38.5544" y1="37.2879" x2="7.6032" y2="68.1187" gradientUnits="userSpaceOnUse">
<stop stop-color="#FF3A44"/>
<stop offset="1" stop-color="#C31162"/>
</linearGradient>
<linearGradient id="paint3_linear_1_210" x1="14.8054" y1="7.20755" x2="28.626" y2="20.9744" gradientUnits="userSpaceOnUse">
<stop stop-color="#32A071"/>
<stop offset="0.0685" stop-color="#2DA771"/>
<stop offset="0.4762" stop-color="#15CF74"/>
<stop offset="0.8009" stop-color="#06E775"/>
<stop offset="1" stop-color="#00F076"/>
</linearGradient>
</defs>
</svg>
