<svg width="184" height="69" viewBox="0 0 184 69" fill="none" xmlns="http://www.w3.org/2000/svg">
<rect x="0.847092" y="0.500183" width="182.444" height="67.9996" rx="10.2641" fill="#F4F4F4"/>
<g filter="url(#filter0_ii_1_58)">
<path d="M19.0578 17.7187C18.6636 18.1376 18.4306 18.7877 18.4306 19.6295V49.7071C18.4306 50.5503 18.6636 51.199 19.0578 51.6179L19.1581 51.7158L35.9415 34.8669V34.6683V34.4698L19.1581 17.6194L19.0578 17.7187Z" fill="url(#paint0_linear_1_58)"/>
<path d="M41.5347 40.4844L35.9411 34.8663V34.6677V34.4692L41.536 28.8524L41.662 28.9245L48.2906 32.7053C50.1831 33.7851 50.1831 35.5517 48.2906 36.6329L41.662 40.4137L41.5347 40.4844Z" fill="url(#paint1_linear_1_58)"/>
<g filter="url(#filter1_i_1_58)">
<path d="M41.6614 40.4131L35.9391 34.6685L19.0567 51.6181C19.6799 52.2818 20.7108 52.3634 21.8718 51.7024L41.6614 40.4131Z" fill="url(#paint2_linear_1_58)"/>
</g>
<path d="M41.6614 28.924L21.8718 17.636C20.7108 16.9737 19.6799 17.0567 19.0567 17.7203L35.9404 34.6699L41.6614 28.924Z" fill="url(#paint3_linear_1_58)"/>
</g>
<path d="M92.2757 36.5158C89.2664 36.5158 86.8137 38.8036 86.8137 41.9546C86.8137 45.0865 89.2664 47.3935 92.2757 47.3935C95.2864 47.3935 97.7391 45.0865 97.7391 41.9546C97.7378 38.8036 95.2851 36.5158 92.2757 36.5158ZM92.2757 45.2527C90.6265 45.2527 89.205 43.8933 89.205 41.9559C89.205 39.998 90.6278 38.6591 92.2757 38.6591C93.925 38.6591 95.3465 39.998 95.3465 41.9559C95.3465 43.8921 93.925 45.2527 92.2757 45.2527ZM80.3587 36.5158C77.3494 36.5158 74.8966 38.8036 74.8966 41.9546C74.8966 45.0865 77.3494 47.3935 80.3587 47.3935C83.3693 47.3935 85.8221 45.0865 85.8221 41.9546C85.8221 38.8036 83.3693 36.5158 80.3587 36.5158ZM80.3587 45.2527C78.7095 45.2527 77.288 43.8933 77.288 41.9559C77.288 39.998 78.7108 38.6591 80.3587 38.6591C82.008 38.6591 83.4295 39.998 83.4295 41.9559C83.4307 43.8921 82.008 45.2527 80.3587 45.2527ZM66.1847 38.1859V40.4929H71.7095C71.5444 41.7909 71.112 42.7386 70.4517 43.3972C69.6482 44.2003 68.3905 45.0865 66.1847 45.0865C62.7839 45.0865 60.1251 42.346 60.1251 38.9468C60.1251 35.5477 62.7839 32.8072 66.1847 32.8072C68.0195 32.8072 69.3591 33.5284 70.3481 34.4556L71.9769 32.8276C70.5951 31.5092 68.7616 30.5002 66.1847 30.5002C61.5261 30.5002 57.6097 34.2906 57.6097 38.9468C57.6097 43.603 61.5261 47.3935 66.1847 47.3935C68.6989 47.3935 70.5963 46.5686 72.0792 45.0238C73.6044 43.4995 74.0791 41.3561 74.0791 39.6259C74.0791 39.0913 74.0381 38.5964 73.955 38.1847L66.1847 38.1859ZM124.155 39.9776C123.702 38.7627 122.32 36.5158 119.497 36.5158C116.693 36.5158 114.363 38.7205 114.363 41.9546C114.363 45.0034 116.673 47.3935 119.764 47.3935C122.258 47.3935 123.701 45.8691 124.3 44.9829L122.444 43.7463C121.826 44.653 120.981 45.2502 119.764 45.2502C118.548 45.2502 117.682 44.6939 117.126 43.6018L124.402 40.594L124.155 39.9776ZM116.734 41.7909C116.673 39.6886 118.363 38.6182 119.58 38.6182C120.528 38.6182 121.331 39.0926 121.6 39.7717L116.734 41.7909ZM110.819 47.0648H113.209V31.0782H110.819V47.0648ZM106.901 37.7319H106.82C106.283 37.0925 105.252 36.5158 103.955 36.5158C101.233 36.5158 98.7397 38.9059 98.7397 41.9764C98.7397 45.0251 101.233 47.3948 103.955 47.3948C105.253 47.3948 106.283 46.818 106.82 46.1594H106.901V46.9421C106.901 49.0227 105.788 50.1353 103.996 50.1353C102.532 50.1353 101.625 49.0854 101.254 48.1991L99.1721 49.0649C99.7696 50.5061 101.356 52.2786 103.996 52.2786C106.799 52.2786 109.17 50.6302 109.17 46.6121V36.847H106.903L106.901 37.7319ZM104.161 45.2527C102.512 45.2527 101.131 43.8716 101.131 41.9764C101.131 40.0594 102.512 38.6591 104.161 38.6591C105.788 38.6591 107.066 40.0594 107.066 41.9764C107.066 43.8716 105.788 45.2527 104.161 45.2527ZM135.356 31.0782H129.635V47.0648H132.021V41.0083H135.354C138 41.0083 140.603 39.0939 140.603 36.0439C140.603 32.9939 138.002 31.0782 135.356 31.0782ZM135.417 38.7831H132.021V33.3034H135.417C137.202 33.3034 138.215 34.7804 138.215 36.0439C138.215 37.2818 137.202 38.7831 135.417 38.7831ZM150.172 36.4877C148.443 36.4877 146.653 37.2486 145.913 38.9353L148.031 39.819C148.484 38.9353 149.329 38.6463 150.213 38.6463C151.448 38.6463 152.703 39.3868 152.723 40.7027V40.8676C152.291 40.6208 151.364 40.2512 150.233 40.2512C147.95 40.2512 145.623 41.5058 145.623 43.8499C145.623 45.9893 147.497 47.3666 149.595 47.3666C151.199 47.3666 152.085 46.6467 152.64 45.8026H152.722V47.0367H155.028V40.9073C155.029 38.0708 152.907 36.4877 150.172 36.4877ZM149.883 45.2489C149.102 45.2489 148.011 44.8576 148.011 43.8908C148.011 42.6567 149.37 42.1835 150.543 42.1835C151.591 42.1835 152.086 42.4099 152.723 42.7181C152.538 44.2003 151.262 45.2489 149.883 45.2489ZM163.423 36.8368L160.687 43.768H160.605L157.764 36.8368H155.193L159.452 46.5239L157.024 51.9129H159.513L166.078 36.8368H163.423ZM141.921 47.0648H144.307V31.0782H141.921V47.0648Z" fill="#090909"/>
<path d="M65.8877 21.4205C65.8877 22.4727 65.5707 23.3103 64.9354 23.9356C64.2144 24.6789 63.2735 25.0506 62.1179 25.0506C61.0109 25.0506 60.0688 24.6739 59.2954 23.9205C58.5207 23.1659 58.1334 22.2317 58.1334 21.1166C58.1334 20.0004 58.5207 19.0661 59.2954 18.3128C60.0688 17.5581 61.0109 17.1814 62.1179 17.1814C62.6676 17.1814 63.193 17.2869 63.6915 17.4966C64.1914 17.7075 64.5915 17.9875 64.8906 18.3379L64.2169 19.0009C63.7094 18.4044 63.0102 18.1068 62.1166 18.1068C61.3087 18.1068 60.6108 18.3856 60.0215 18.9431C59.4321 19.5006 59.1381 20.2251 59.1381 21.1154C59.1381 22.0056 59.4321 22.7302 60.0215 23.2877C60.6108 23.8452 61.3087 24.1239 62.1166 24.1239C62.9731 24.1239 63.6877 23.8439 64.2591 23.2826C64.6298 22.9173 64.8446 22.4087 64.9021 21.757H62.1166V20.8517H65.8327C65.8711 21.0488 65.8877 21.2384 65.8877 21.4205Z" fill="#090909"/>
<path d="M71.7809 18.2739H68.2885V20.6622H71.4383V21.5675H68.2885V23.9557H71.7809V24.8824H67.3029V17.3485H71.7809V18.2739Z" fill="#090909"/>
<path d="M75.9366 24.8824H74.951V18.2739H72.8086V17.3485H78.0791V18.2739H75.9366V24.8824Z" fill="#090909"/>
<path d="M81.8923 24.8824V17.3485H82.8779V24.8824H81.8923Z" fill="#090909"/>
<path d="M87.2487 24.8824H86.2631V18.2739H84.1206V17.3485H89.3912V18.2739H87.2487V24.8824Z" fill="#090909"/>
<path d="M99.3683 23.9093C98.6141 24.6702 97.677 25.0507 96.5559 25.0507C95.4348 25.0507 94.4978 24.6702 93.7449 23.9093C92.9907 23.1484 92.6148 22.2167 92.6148 21.1154C92.6148 20.0142 92.9907 19.0825 93.7449 18.3216C94.4978 17.5607 95.4348 17.179 96.5559 17.179C97.6706 17.179 98.6064 17.5619 99.3632 18.3266C100.12 19.0913 100.498 20.0205 100.498 21.1154C100.498 22.2167 100.121 23.1484 99.3683 23.9093ZM94.4723 23.2777C95.0398 23.8427 95.734 24.124 96.5559 24.124C97.3779 24.124 98.0733 23.8415 98.6396 23.2777C99.2072 22.7126 99.4923 21.9919 99.4923 21.1154C99.4923 20.239 99.2072 19.5182 98.6396 18.9532C98.0733 18.3882 97.3779 18.1069 96.5559 18.1069C95.734 18.1069 95.0398 18.3894 94.4723 18.9532C93.906 19.5182 93.6209 20.239 93.6209 21.1154C93.6209 21.9919 93.906 22.7126 94.4723 23.2777Z" fill="#090909"/>
<path d="M101.881 24.8824V17.3485H103.081L106.808 23.2086H106.85L106.808 21.7571V17.3485H107.794V24.8824H106.765L102.865 18.7372H102.822L102.865 20.1888V24.8824H101.881Z" fill="#090909"/>
<path d="M65.8877 21.4205C65.8877 22.4727 65.5707 23.3103 64.9354 23.9356C64.2144 24.6789 63.2735 25.0506 62.1179 25.0506C61.0109 25.0506 60.0688 24.6739 59.2954 23.9205C58.5207 23.1659 58.1334 22.2317 58.1334 21.1166C58.1334 20.0004 58.5207 19.0661 59.2954 18.3128C60.0688 17.5581 61.0109 17.1814 62.1179 17.1814C62.6676 17.1814 63.193 17.2869 63.6915 17.4966C64.1914 17.7075 64.5915 17.9875 64.8906 18.3379L64.2169 19.0009C63.7094 18.4044 63.0102 18.1068 62.1166 18.1068C61.3087 18.1068 60.6108 18.3856 60.0215 18.9431C59.4321 19.5006 59.1381 20.2251 59.1381 21.1154C59.1381 22.0056 59.4321 22.7302 60.0215 23.2877C60.6108 23.8452 61.3087 24.1239 62.1166 24.1239C62.9731 24.1239 63.6877 23.8439 64.2591 23.2826C64.6298 22.9173 64.8446 22.4087 64.9021 21.757H62.1166V20.8517H65.8327C65.8711 21.0488 65.8877 21.2384 65.8877 21.4205Z" stroke="white" stroke-width="0.0524781" stroke-miterlimit="10"/>
<path d="M71.7809 18.2739H68.2885V20.6622H71.4383V21.5675H68.2885V23.9557H71.7809V24.8824H67.3029V17.3485H71.7809V18.2739Z" stroke="white" stroke-width="0.0524781" stroke-miterlimit="10"/>
<path d="M75.9366 24.8824H74.951V18.2739H72.8086V17.3485H78.0791V18.2739H75.9366V24.8824Z" stroke="white" stroke-width="0.0524781" stroke-miterlimit="10"/>
<path d="M81.8923 24.8824V17.3485H82.8779V24.8824H81.8923Z" stroke="white" stroke-width="0.0524781" stroke-miterlimit="10"/>
<path d="M87.2487 24.8824H86.2631V18.2739H84.1206V17.3485H89.3912V18.2739H87.2487V24.8824Z" stroke="white" stroke-width="0.0524781" stroke-miterlimit="10"/>
<path d="M99.3683 23.9093C98.6141 24.6702 97.677 25.0507 96.5559 25.0507C95.4348 25.0507 94.4978 24.6702 93.7449 23.9093C92.9907 23.1484 92.6148 22.2167 92.6148 21.1154C92.6148 20.0142 92.9907 19.0825 93.7449 18.3216C94.4978 17.5607 95.4348 17.179 96.5559 17.179C97.6706 17.179 98.6064 17.5619 99.3632 18.3266C100.12 19.0913 100.498 20.0205 100.498 21.1154C100.498 22.2167 100.121 23.1484 99.3683 23.9093ZM94.4723 23.2777C95.0398 23.8427 95.734 24.124 96.5559 24.124C97.3779 24.124 98.0733 23.8415 98.6396 23.2777C99.2072 22.7126 99.4923 21.9919 99.4923 21.1154C99.4923 20.239 99.2072 19.5182 98.6396 18.9532C98.0733 18.3882 97.3779 18.1069 96.5559 18.1069C95.734 18.1069 95.0398 18.3894 94.4723 18.9532C93.906 19.5182 93.6209 20.239 93.6209 21.1154C93.6209 21.9919 93.906 22.7126 94.4723 23.2777Z" stroke="white" stroke-width="0.0524781" stroke-miterlimit="10"/>
<path d="M101.881 24.8824V17.3485H103.081L106.808 23.2086H106.85L106.808 21.7571V17.3485H107.794V24.8824H106.765L102.865 18.7372H102.822L102.865 20.1888V24.8824H101.881Z" stroke="white" stroke-width="0.0524781" stroke-miterlimit="10"/>
<defs>
<filter id="filter0_ii_1_58" x="18.4306" y="17.179" width="31.2794" height="34.9799" filterUnits="userSpaceOnUse" color-interpolation-filters="sRGB">
<feFlood flood-opacity="0" result="BackgroundImageFix"/>
<feBlend mode="normal" in="SourceGraphic" in2="BackgroundImageFix" result="shape"/>
<feColorMatrix in="SourceAlpha" type="matrix" values="0 0 0 0 0 0 0 0 0 0 0 0 0 0 0 0 0 0 127 0" result="hardAlpha"/>
<feOffset dy="-0.203999"/>
<feComposite in2="hardAlpha" operator="arithmetic" k2="-1" k3="1"/>
<feColorMatrix type="matrix" values="0 0 0 0 0 0 0 0 0 0 0 0 0 0 0 0 0 0 0.12 0"/>
<feBlend mode="normal" in2="shape" result="effect1_innerShadow_1_58"/>
<feColorMatrix in="SourceAlpha" type="matrix" values="0 0 0 0 0 0 0 0 0 0 0 0 0 0 0 0 0 0 127 0" result="hardAlpha"/>
<feOffset dy="0.203999"/>
<feComposite in2="hardAlpha" operator="arithmetic" k2="-1" k3="1"/>
<feColorMatrix type="matrix" values="0 0 0 0 1 0 0 0 0 1 0 0 0 0 1 0 0 0 0.25 0"/>
<feBlend mode="normal" in2="effect1_innerShadow_1_58" result="effect2_innerShadow_1_58"/>
</filter>
<filter id="filter1_i_1_58" x="19.0567" y="34.6685" width="22.6046" height="17.4904" filterUnits="userSpaceOnUse" color-interpolation-filters="sRGB">
<feFlood flood-opacity="0" result="BackgroundImageFix"/>
<feBlend mode="normal" in="SourceGraphic" in2="BackgroundImageFix" result="shape"/>
<feColorMatrix in="SourceAlpha" type="matrix" values="0 0 0 0 0 0 0 0 0 0 0 0 0 0 0 0 0 0 127 0" result="hardAlpha"/>
<feOffset dy="-0.203999"/>
<feComposite in2="hardAlpha" operator="arithmetic" k2="-1" k3="1"/>
<feColorMatrix type="matrix" values="0 0 0 0 0 0 0 0 0 0 0 0 0 0 0 0 0 0 0.08 0"/>
<feBlend mode="normal" in2="shape" result="effect1_innerShadow_1_58"/>
</filter>
<linearGradient id="paint0_linear_1_58" x1="34.4538" y1="19.3113" x2="11.6306" y2="42.0458" gradientUnits="userSpaceOnUse">
<stop stop-color="#00A0FF"/>
<stop offset="0.0066" stop-color="#00A1FF"/>
<stop offset="0.2601" stop-color="#00BEFF"/>
<stop offset="0.5122" stop-color="#00D2FF"/>
<stop offset="0.7604" stop-color="#00DFFF"/>
<stop offset="1" stop-color="#00E3FF"/>
</linearGradient>
<linearGradient id="paint1_linear_1_58" x1="50.7541" y1="34.6677" x2="17.9758" y2="34.6677" gradientUnits="userSpaceOnUse">
<stop stop-color="#FFE000"/>
<stop offset="0.4087" stop-color="#FFBD00"/>
<stop offset="0.7754" stop-color="#FFA500"/>
<stop offset="1" stop-color="#FF9C00"/>
</linearGradient>
<linearGradient id="paint2_linear_1_58" x1="38.5538" y1="37.7882" x2="7.60263" y2="68.619" gradientUnits="userSpaceOnUse">
<stop stop-color="#FF3A44"/>
<stop offset="1" stop-color="#C31162"/>
</linearGradient>
<linearGradient id="paint3_linear_1_58" x1="14.8049" y1="7.7078" x2="28.6254" y2="21.4746" gradientUnits="userSpaceOnUse">
<stop stop-color="#32A071"/>
<stop offset="0.0685" stop-color="#2DA771"/>
<stop offset="0.4762" stop-color="#15CF74"/>
<stop offset="0.8009" stop-color="#06E775"/>
<stop offset="1" stop-color="#00F076"/>
</linearGradient>
</defs>
</svg>
