<svg width="61" height="51" viewBox="0 0 61 51" fill="none" xmlns="http://www.w3.org/2000/svg">
<path d="M34.7359 48.1929L34.7359 39.1414C34.7359 37.9132 35.8553 36.9185 37.2354 36.9185C42.1603 36.9185 44.8395 32.4267 45.2114 23.5598L37.2354 23.5598C35.8555 23.5598 34.7359 22.5637 34.7359 21.3369L34.7359 2.2243C34.7359 0.996609 35.8553 0.00187113 37.2354 0.00187137L58.5003 0.00187509C59.8801 0.00187533 61 0.997702 61 2.2243L61 21.3371C61 25.5872 60.5175 29.4874 59.5704 32.9319C58.5974 36.463 57.1039 39.5501 55.1322 42.1083C53.1045 44.7373 50.5657 46.8003 47.591 48.237C44.5938 49.6829 41.1097 50.4167 37.2344 50.4167C35.8555 50.4157 34.7359 49.4201 34.7359 48.1929ZM2.49905 36.9177C1.11908 36.9177 8.62983e-06 37.9132 8.4154e-06 39.1396L6.83246e-06 48.193C6.61791e-06 49.4201 1.11908 50.415 2.49905 50.415C6.37247 50.415 9.8583 49.681 12.8536 48.2353C15.8299 46.7987 18.3683 44.7374 20.3958 42.1066C22.3687 39.5484 23.8621 36.4611 24.8351 32.9283C25.7827 29.4838 26.2642 25.5835 26.2642 21.3352L26.2642 2.22243C26.2642 0.994743 25.144 4.39632e-06 23.7646 4.15513e-06L2.49906 4.36947e-07C1.11909 1.95665e-07 1.50847e-05 0.995671 1.48702e-05 2.22243L1.15284e-05 21.3352C1.13138e-05 22.5627 1.11908 23.5581 2.49905 23.5581L10.363 23.5581C9.99566 32.4257 7.35507 36.9177 2.49905 36.9177Z" fill="#191720"/>
</svg>
